<svg width="108" height="87" viewBox="0 0 108 87" fill="none" xmlns="http://www.w3.org/2000/svg">
<path d="M22.1434 43.2878H43.572V64.7164H22.1434V43.2878ZM0.714844 43.2878H22.1434V64.7164H0.714844V43.2878ZM0.714844 64.7164H22.1434V86.1449H0.714844V64.7164ZM22.1434 64.7164H43.572V86.1449H22.1434V64.7164ZM0.714844 21.8592H22.1434V43.2878H0.714844V21.8592ZM22.1434 0.430664H43.572V21.8592H22.1434V0.430664ZM86.4291 43.2878H107.858V64.7164H86.4291V43.2878ZM65.0006 43.2878H86.4291V64.7164H65.0006V43.2878ZM65.0006 64.7164H86.4291V86.1449H65.0006V64.7164ZM86.4291 64.7164H107.858V86.1449H86.4291V64.7164ZM65.0006 21.8592H86.4291V43.2878H65.0006V21.8592ZM86.4291 0.430664H107.858V21.8592H86.4291V0.430664Z" fill="white"/>
</svg>
